<?xml version="1.0" standalone="no"?>
<!DOCTYPE svg PUBLIC "-//W3C//DTD SVG 20010904//EN"
 "http://www.w3.org/TR/2001/REC-SVG-20010904/DTD/svg10.dtd">
<svg version="1.0" xmlns="http://www.w3.org/2000/svg"
 width="680.000000pt" height="680.000000pt" viewBox="0 0 680.000000 680.000000"
 preserveAspectRatio="xMidYMid meet">
<metadata>
Created by potrace 1.11, written by Peter Selinger 2001-2013
</metadata>
<g transform="translate(0.000000,680.000000) scale(0.100000,-0.100000)"
fill="#000000" stroke="none">
<path d="M2074 6782 c-36 -29 -72 -56 -94 -72 -28 -19 -159 -115 -185 -134
-50 -38 -100 -76 -184 -136 -50 -36 -91 -68 -91 -72 0 -5 -5 -8 -10 -8 -9 0
-63 -37 -170 -119 -23 -18 -181 -134 -225 -165 -11 -8 -67 -49 -125 -92 -58
-42 -150 -110 -205 -150 -55 -41 -104 -77 -110 -81 -5 -5 -38 -28 -73 -53
l-63 -45 6 -315 c3 -173 8 -342 10 -375 3 -33 7 -87 9 -120 10 -140 17 -222
21 -250 6 -45 17 -145 21 -188 2 -21 5 -46 8 -55 3 -9 8 -44 12 -77 3 -33 8
-69 10 -80 3 -11 7 -36 10 -55 3 -19 8 -46 10 -60 3 -14 7 -36 9 -50 10 -61
17 -101 37 -190 11 -52 22 -102 23 -110 1 -8 5 -28 10 -45 4 -16 18 -75 31
-130 50 -205 154 -540 219 -710 13 -33 35 -91 50 -130 14 -38 32 -83 40 -100
7 -16 25 -55 38 -85 61 -134 92 -201 135 -285 67 -133 111 -217 125 -240 23
-38 58 -97 77 -129 10 -18 24 -44 32 -57 7 -13 15 -26 18 -29 3 -3 32 -48 64
-100 33 -52 64 -100 70 -105 17 -16 76 -104 76 -114 0 -5 3 -11 8 -13 4 -1 20
-21 37 -43 16 -22 33 -44 37 -50 116 -147 151 -191 157 -195 4 -3 12 -12 17
-21 31 -54 532 -569 554 -569 5 0 21 -12 36 -27 43 -43 149 -129 264 -212 30
-22 60 -44 65 -48 45 -35 85 -63 90 -63 3 0 32 -18 64 -39 93 -64 231 -140
307 -170 l51 -20 119 60 c66 33 121 65 122 70 2 5 10 9 18 9 8 0 20 5 27 10 7
6 53 37 104 70 130 84 284 199 418 312 11 9 31 26 45 38 136 113 356 332 508
506 24 27 55 63 70 80 15 16 41 48 57 69 17 21 39 49 50 62 11 12 31 39 45 59
14 20 33 43 43 52 9 9 17 22 17 29 0 7 5 13 10 13 6 0 14 8 17 18 6 14 56 85
73 102 3 3 11 17 19 32 8 16 18 28 23 28 4 0 8 5 8 10 0 6 23 44 50 85 28 41
50 78 50 84 0 5 3 11 8 13 9 4 82 126 82 139 0 5 5 9 10 9 6 0 10 6 10 14 0 7
6 19 14 25 8 7 17 24 21 39 4 15 10 29 15 32 8 5 200 384 200 395 0 2 16 37
35 77 20 40 35 73 33 73 -2 0 40 108 63 160 17 39 61 161 91 250 16 50 32 97
35 105 4 8 7 18 8 23 2 4 3 8 5 10 1 1 3 9 5 17 1 8 19 69 38 135 36 121 66
231 73 272 2 12 8 33 13 45 5 13 9 26 9 31 0 4 3 20 6 35 4 15 9 38 12 52 3
14 8 36 11 50 3 14 7 34 8 45 2 11 4 20 5 20 2 0 9 35 15 79 3 21 7 42 10 46
3 4 7 25 10 46 3 22 7 48 9 59 6 32 17 98 21 130 2 17 6 44 9 60 10 62 18 121
21 160 2 22 4 40 5 40 1 0 3 14 5 30 1 17 6 57 9 90 31 303 35 375 42 745 l6
295 -63 44 c-59 41 -245 178 -395 290 -34 25 -74 55 -89 66 -15 11 -109 81
-209 155 -100 74 -242 180 -316 235 -74 54 -136 103 -138 107 -2 4 -8 8 -13 8
-8 0 -81 52 -99 70 -6 6 -210 153 -227 163 -7 5 -42 -23 -90 -71 -43 -43 -105
-100 -138 -126 -33 -25 -65 -50 -71 -55 -18 -14 -178 -105 -189 -108 -5 -1
-46 -17 -90 -37 -72 -31 -229 -82 -280 -91 -11 -2 -45 -8 -75 -14 -57 -11
-119 -20 -180 -27 -77 -8 -455 -3 -455 6 0 1 -9 3 -20 5 -69 10 -95 15 -140
25 -27 6 -54 12 -60 14 -5 1 -30 8 -55 15 -25 7 -79 24 -120 38 -64 22 -111
44 -277 127 -13 6 -23 14 -23 19 0 4 -5 7 -11 7 -21 0 -163 114 -249 200 -49
50 -90 90 -92 90 -2 -1 -13 -8 -24 -18z"/>
</g>
</svg>
